<svg width="181" height="404" viewBox="0 0 181 404" fill="none" xmlns="http://www.w3.org/2000/svg">
<path fill-rule="evenodd" clip-rule="evenodd" d="M387.134 -281.319C390.794 -279.23 394.314 -277.222 397.683 -275.319L396.699 -273.578C393.327 -275.482 389.807 -277.49 386.151 -279.576C350.574 -299.876 302.121 -327.523 250.994 -338.401C222.824 -344.394 193.896 -345.283 165.905 -337.068C137.925 -328.857 110.813 -311.53 86.2918 -280.978C60.5103 -248.857 54.2677 -214.692 60.2037 -182.148C66.1465 -149.568 84.3087 -118.564 107.42 -92.8868C110.87 -89.0536 114.429 -85.3406 118.073 -81.7602C143.821 -87.9706 170.971 -88.9187 194.437 -86.1303C219.046 -83.206 239.793 -76.1488 250.578 -66.564C255.994 -61.7516 259.011 -56.1932 258.548 -50.1283C258.087 -44.0929 254.199 -37.8506 246.485 -31.6034C239.548 -25.9854 230.132 -23.7742 219.301 -24.3509C208.469 -24.9277 196.135 -28.295 183.236 -33.9378C161.569 -43.4166 138.191 -59.3672 117.468 -79.5537C116.533 -79.3224 115.6 -79.084 114.669 -78.8385C88.0395 -71.816 63.3277 -58.9786 46.3094 -38.6419C5.39854 10.2459 -4.60679 70.624 10.4528 130.834C25.5174 191.065 65.6711 251.126 125.069 299.22C243.842 395.389 439.475 443.627 664.686 349.571L665.456 351.417C439.594 445.744 243.177 397.424 123.81 300.774C64.1387 252.459 23.7006 192.044 8.51253 131.32C-6.68066 70.575 3.40017 9.51757 44.7756 -39.9255C62.1393 -60.6748 87.2687 -73.6811 114.159 -80.7724C114.704 -80.9162 115.25 -81.0576 115.797 -81.1966C112.429 -84.5387 109.134 -87.9927 105.934 -91.5488C82.6563 -117.41 64.2645 -148.74 58.2362 -181.79C52.2011 -214.876 58.5702 -249.635 84.732 -282.23C109.487 -313.073 136.936 -330.651 165.342 -338.987C193.735 -347.32 223.014 -346.399 251.41 -340.357C302.862 -329.41 351.589 -301.603 387.134 -281.319ZM119.77 -80.1079C140.109 -60.4894 162.926 -45.006 184.038 -35.7701C196.794 -30.1899 208.886 -26.9083 219.408 -26.3481C229.931 -25.7878 238.797 -27.9514 245.226 -33.1577C252.734 -39.2376 256.152 -45.0242 256.553 -50.2805C256.952 -55.5072 254.387 -60.5033 249.25 -65.069C238.929 -74.2407 218.686 -81.2347 194.201 -84.1443C171.319 -86.8632 144.9 -85.9945 119.77 -80.1079Z" fill="#F5F5F5" stroke="#F5F5F5" stroke-width="2"/>
</svg>
