<svg width="644" height="825" viewBox="0 0 644 825" fill="none" xmlns="http://www.w3.org/2000/svg">
<path fill-rule="evenodd" clip-rule="evenodd" d="M1.92599 559.272C1.9002 555.059 1.8754 551.006 1.83427 547.137L3.83416 547.116C3.87534 550.989 3.90038 555.041 3.9264 559.25C4.17954 600.21 4.52432 655.995 20.7214 705.694C29.6454 733.076 43.3678 758.558 64.4997 778.669C85.6226 798.771 114.201 813.557 152.926 819.475C193.642 825.697 226.338 813.985 251.53 792.545C276.75 771.081 294.486 739.83 305.131 706.965C306.72 702.059 308.151 697.118 309.425 692.171C291.151 672.998 276.73 649.975 267.388 628.269C257.592 605.506 253.306 584.014 256.199 569.878C257.651 562.781 260.95 557.385 266.431 554.748C271.886 552.123 279.236 552.361 288.507 555.908C296.845 559.098 303.475 566.139 308.401 575.802C313.329 585.466 316.593 597.827 318.171 611.817C320.821 635.319 318.727 663.542 311.637 691.589C312.306 692.283 312.98 692.971 313.659 693.654C333.076 713.183 356.566 728.14 382.692 732.681C445.498 743.599 502.766 722.012 547.333 678.816C591.915 635.606 623.781 570.767 635.65 495.267C659.384 344.296 603.132 150.815 408.91 3.0165L410.121 1.42492C604.905 149.651 661.479 343.852 637.626 495.577C625.702 571.425 593.672 636.688 548.725 680.252C503.762 723.832 445.868 745.693 382.35 734.652C355.693 730.018 331.848 714.785 312.24 695.064C311.843 694.664 311.447 694.262 311.052 693.859C309.847 698.448 308.508 703.03 307.034 707.581C296.312 740.683 278.41 772.295 252.826 794.068C227.214 815.866 193.94 827.766 152.624 821.452C113.529 815.477 84.5652 800.526 63.1209 780.118C41.6855 759.718 27.8157 733.917 18.8198 706.314C2.51969 656.299 2.1764 600.197 1.92599 559.272ZM310.004 689.875C316.795 662.444 318.766 634.94 316.183 612.042C314.623 598.206 311.405 586.097 306.62 576.71C301.833 567.322 295.519 560.732 287.792 557.776C278.769 554.324 272.049 554.264 267.299 556.55C262.575 558.823 259.536 563.546 258.158 570.279C255.39 583.806 259.478 604.83 269.225 627.479C278.334 648.644 292.321 671.075 310.004 689.875Z" fill="#F5F5F5" stroke="#F5F5F5" stroke-width="2"/>
</svg>
